<mxfile host="app.diagrams.net" modified="2021-10-23T23:03:23.610Z" agent="5.0 (Windows NT 10.0; Win64; x64) AppleWebKit/537.36 (KHTML, like Gecko) Chrome/94.0.4606.81 Safari/537.36" etag="AKa3WHxcsv7wSGwp0HNF" version="15.5.8" type="github">
  <diagram id="fPay0rB7Q9opEIkitOZb" name="Page-1">
    <mxGraphModel dx="2844" dy="1524" grid="1" gridSize="10" guides="1" tooltips="1" connect="1" arrows="1" fold="1" page="1" pageScale="1" pageWidth="827" pageHeight="1169" math="0" shadow="0">
      <root>
        <mxCell id="0" />
        <mxCell id="1" parent="0" />
        <mxCell id="7iWaUASo7kZENV6Arci1-1" value="Início" style="ellipse;whiteSpace=wrap;html=1;" vertex="1" parent="1">
          <mxGeometry x="70" y="40" width="120" height="80" as="geometry" />
        </mxCell>
        <mxCell id="7iWaUASo7kZENV6Arci1-2" value="Inserir data desejada de participação:" style="shape=step;perimeter=stepPerimeter;whiteSpace=wrap;html=1;fixedSize=1;" vertex="1" parent="1">
          <mxGeometry x="70" y="190" width="120" height="80" as="geometry" />
        </mxCell>
        <mxCell id="7iWaUASo7kZENV6Arci1-4" value="A data desejada é posterior a atual?" style="rhombus;whiteSpace=wrap;html=1;" vertex="1" parent="1">
          <mxGeometry x="70" y="480" width="120" height="90" as="geometry" />
        </mxCell>
        <mxCell id="7iWaUASo7kZENV6Arci1-6" value="Data 01" style="rounded=0;whiteSpace=wrap;html=1;" vertex="1" parent="1">
          <mxGeometry x="70" y="345" width="120" height="60" as="geometry" />
        </mxCell>
        <mxCell id="7iWaUASo7kZENV6Arci1-7" value="" style="endArrow=classic;html=1;rounded=0;exitX=1;exitY=0.5;exitDx=0;exitDy=0;entryX=0.5;entryY=1;entryDx=0;entryDy=0;" edge="1" parent="1" source="7iWaUASo7kZENV6Arci1-4" target="7iWaUASo7kZENV6Arci1-9">
          <mxGeometry width="50" height="50" relative="1" as="geometry">
            <mxPoint x="390" y="390" as="sourcePoint" />
            <mxPoint x="440" y="340" as="targetPoint" />
            <Array as="points">
              <mxPoint x="320" y="525" />
              <mxPoint x="320" y="470" />
            </Array>
          </mxGeometry>
        </mxCell>
        <mxCell id="7iWaUASo7kZENV6Arci1-8" value="Não" style="edgeLabel;html=1;align=center;verticalAlign=middle;resizable=0;points=[];" vertex="1" connectable="0" parent="7iWaUASo7kZENV6Arci1-7">
          <mxGeometry x="-0.164" y="2" relative="1" as="geometry">
            <mxPoint x="-35" y="2" as="offset" />
          </mxGeometry>
        </mxCell>
        <mxCell id="7iWaUASo7kZENV6Arci1-9" value="Notificação: &quot;A data desejada não é válida&quot;" style="rounded=0;whiteSpace=wrap;html=1;" vertex="1" parent="1">
          <mxGeometry x="260" y="345" width="120" height="60" as="geometry" />
        </mxCell>
        <mxCell id="7iWaUASo7kZENV6Arci1-10" value="" style="endArrow=classic;html=1;rounded=0;exitX=0.5;exitY=0;exitDx=0;exitDy=0;entryX=1;entryY=0.5;entryDx=0;entryDy=0;" edge="1" parent="1" source="7iWaUASo7kZENV6Arci1-9" target="7iWaUASo7kZENV6Arci1-2">
          <mxGeometry width="50" height="50" relative="1" as="geometry">
            <mxPoint x="390" y="370" as="sourcePoint" />
            <mxPoint x="440" y="320" as="targetPoint" />
            <Array as="points">
              <mxPoint x="320" y="230" />
            </Array>
          </mxGeometry>
        </mxCell>
        <mxCell id="7iWaUASo7kZENV6Arci1-11" value="" style="endArrow=classic;html=1;rounded=0;exitX=0.5;exitY=1;exitDx=0;exitDy=0;" edge="1" parent="1" source="7iWaUASo7kZENV6Arci1-1" target="7iWaUASo7kZENV6Arci1-2">
          <mxGeometry width="50" height="50" relative="1" as="geometry">
            <mxPoint x="390" y="370" as="sourcePoint" />
            <mxPoint x="440" y="320" as="targetPoint" />
          </mxGeometry>
        </mxCell>
        <mxCell id="7iWaUASo7kZENV6Arci1-12" value="" style="endArrow=classic;html=1;rounded=0;exitX=0.5;exitY=1;exitDx=0;exitDy=0;entryX=0.5;entryY=0;entryDx=0;entryDy=0;" edge="1" parent="1" source="7iWaUASo7kZENV6Arci1-2" target="7iWaUASo7kZENV6Arci1-6">
          <mxGeometry width="50" height="50" relative="1" as="geometry">
            <mxPoint x="390" y="370" as="sourcePoint" />
            <mxPoint x="440" y="320" as="targetPoint" />
          </mxGeometry>
        </mxCell>
        <mxCell id="7iWaUASo7kZENV6Arci1-13" value="" style="endArrow=classic;html=1;rounded=0;exitX=0.5;exitY=1;exitDx=0;exitDy=0;entryX=0.5;entryY=0;entryDx=0;entryDy=0;" edge="1" parent="1" source="7iWaUASo7kZENV6Arci1-6" target="7iWaUASo7kZENV6Arci1-4">
          <mxGeometry width="50" height="50" relative="1" as="geometry">
            <mxPoint x="390" y="370" as="sourcePoint" />
            <mxPoint x="440" y="320" as="targetPoint" />
          </mxGeometry>
        </mxCell>
        <mxCell id="7iWaUASo7kZENV6Arci1-14" value="IdadeParticipante = Data do Evento - Data de Nascimento" style="rounded=0;whiteSpace=wrap;html=1;" vertex="1" parent="1">
          <mxGeometry x="70" y="760" width="120" height="60" as="geometry" />
        </mxCell>
        <mxCell id="7iWaUASo7kZENV6Arci1-15" value="Informar a data de nascimento:" style="shape=step;perimeter=stepPerimeter;whiteSpace=wrap;html=1;fixedSize=1;" vertex="1" parent="1">
          <mxGeometry x="70" y="620" width="120" height="80" as="geometry" />
        </mxCell>
        <mxCell id="7iWaUASo7kZENV6Arci1-16" value="Idadeparticipante &amp;gt; 18 anos?" style="rhombus;whiteSpace=wrap;html=1;" vertex="1" parent="1">
          <mxGeometry x="60" y="870" width="140" height="80" as="geometry" />
        </mxCell>
        <mxCell id="7iWaUASo7kZENV6Arci1-17" value="Notificação: &quot;Idade não permitida para esse evento&quot;" style="rounded=0;whiteSpace=wrap;html=1;" vertex="1" parent="1">
          <mxGeometry x="260" y="880" width="120" height="60" as="geometry" />
        </mxCell>
        <mxCell id="7iWaUASo7kZENV6Arci1-18" value="Notificação: &quot;O limite de participantes são 100&quot;" style="rounded=0;whiteSpace=wrap;html=1;" vertex="1" parent="1">
          <mxGeometry x="260" y="1140" width="120" height="60" as="geometry" />
        </mxCell>
        <mxCell id="7iWaUASo7kZENV6Arci1-19" value="Listar participantes:" style="shape=step;perimeter=stepPerimeter;whiteSpace=wrap;html=1;fixedSize=1;" vertex="1" parent="1">
          <mxGeometry x="70" y="990" width="120" height="80" as="geometry" />
        </mxCell>
        <mxCell id="7iWaUASo7kZENV6Arci1-20" value="Quantidade de participantes &amp;lt;= 100?" style="rhombus;whiteSpace=wrap;html=1;" vertex="1" parent="1">
          <mxGeometry x="70" y="1130" width="120" height="80" as="geometry" />
        </mxCell>
        <mxCell id="7iWaUASo7kZENV6Arci1-21" value="Notificação: &quot;Cadastro realizado&quot;" style="rounded=0;whiteSpace=wrap;html=1;" vertex="1" parent="1">
          <mxGeometry x="70" y="1270" width="120" height="60" as="geometry" />
        </mxCell>
        <mxCell id="7iWaUASo7kZENV6Arci1-22" value="" style="endArrow=classic;html=1;rounded=0;exitX=1;exitY=0.5;exitDx=0;exitDy=0;" edge="1" parent="1" source="7iWaUASo7kZENV6Arci1-16" target="7iWaUASo7kZENV6Arci1-17">
          <mxGeometry width="50" height="50" relative="1" as="geometry">
            <mxPoint x="390" y="690" as="sourcePoint" />
            <mxPoint x="440" y="640" as="targetPoint" />
          </mxGeometry>
        </mxCell>
        <mxCell id="7iWaUASo7kZENV6Arci1-23" value="" style="endArrow=classic;html=1;rounded=0;exitX=0.5;exitY=1;exitDx=0;exitDy=0;" edge="1" parent="1" source="7iWaUASo7kZENV6Arci1-14" target="7iWaUASo7kZENV6Arci1-16">
          <mxGeometry width="50" height="50" relative="1" as="geometry">
            <mxPoint x="390" y="690" as="sourcePoint" />
            <mxPoint x="440" y="640" as="targetPoint" />
          </mxGeometry>
        </mxCell>
        <mxCell id="7iWaUASo7kZENV6Arci1-24" value="" style="endArrow=classic;html=1;rounded=0;exitX=0.5;exitY=1;exitDx=0;exitDy=0;entryX=0.5;entryY=0;entryDx=0;entryDy=0;" edge="1" parent="1" source="7iWaUASo7kZENV6Arci1-15" target="7iWaUASo7kZENV6Arci1-14">
          <mxGeometry width="50" height="50" relative="1" as="geometry">
            <mxPoint x="390" y="690" as="sourcePoint" />
            <mxPoint x="440" y="640" as="targetPoint" />
          </mxGeometry>
        </mxCell>
        <mxCell id="7iWaUASo7kZENV6Arci1-25" value="" style="endArrow=classic;html=1;rounded=0;exitX=0.5;exitY=1;exitDx=0;exitDy=0;entryX=0.5;entryY=0;entryDx=0;entryDy=0;startArrow=none;" edge="1" parent="1" source="7iWaUASo7kZENV6Arci1-26" target="7iWaUASo7kZENV6Arci1-15">
          <mxGeometry width="50" height="50" relative="1" as="geometry">
            <mxPoint x="390" y="690" as="sourcePoint" />
            <mxPoint x="440" y="640" as="targetPoint" />
          </mxGeometry>
        </mxCell>
        <mxCell id="7iWaUASo7kZENV6Arci1-26" value="Sim" style="text;html=1;align=center;verticalAlign=middle;resizable=0;points=[];autosize=1;strokeColor=none;fillColor=none;" vertex="1" parent="1">
          <mxGeometry x="110" y="578" width="40" height="20" as="geometry" />
        </mxCell>
        <mxCell id="7iWaUASo7kZENV6Arci1-27" value="" style="endArrow=none;html=1;rounded=0;exitX=0.5;exitY=1;exitDx=0;exitDy=0;entryX=0.5;entryY=0;entryDx=0;entryDy=0;" edge="1" parent="1" source="7iWaUASo7kZENV6Arci1-4" target="7iWaUASo7kZENV6Arci1-26">
          <mxGeometry width="50" height="50" relative="1" as="geometry">
            <mxPoint x="130" y="570" as="sourcePoint" />
            <mxPoint x="130" y="620" as="targetPoint" />
          </mxGeometry>
        </mxCell>
        <mxCell id="7iWaUASo7kZENV6Arci1-28" value="Fim" style="ellipse;whiteSpace=wrap;html=1;" vertex="1" parent="1">
          <mxGeometry x="570" y="1000" width="120" height="80" as="geometry" />
        </mxCell>
        <mxCell id="7iWaUASo7kZENV6Arci1-30" value="" style="endArrow=classic;html=1;rounded=0;exitX=1.033;exitY=0.383;exitDx=0;exitDy=0;exitPerimeter=0;entryX=0.5;entryY=0;entryDx=0;entryDy=0;" edge="1" parent="1" source="7iWaUASo7kZENV6Arci1-17" target="7iWaUASo7kZENV6Arci1-28">
          <mxGeometry width="50" height="50" relative="1" as="geometry">
            <mxPoint x="390" y="790" as="sourcePoint" />
            <mxPoint x="440" y="740" as="targetPoint" />
            <Array as="points">
              <mxPoint x="630" y="903" />
            </Array>
          </mxGeometry>
        </mxCell>
        <mxCell id="7iWaUASo7kZENV6Arci1-31" value="" style="endArrow=classic;html=1;rounded=0;exitX=0.5;exitY=1;exitDx=0;exitDy=0;entryX=0.5;entryY=0;entryDx=0;entryDy=0;" edge="1" parent="1" source="7iWaUASo7kZENV6Arci1-16" target="7iWaUASo7kZENV6Arci1-19">
          <mxGeometry width="50" height="50" relative="1" as="geometry">
            <mxPoint x="390" y="790" as="sourcePoint" />
            <mxPoint x="440" y="740" as="targetPoint" />
          </mxGeometry>
        </mxCell>
        <mxCell id="7iWaUASo7kZENV6Arci1-32" value="Não" style="text;html=1;align=center;verticalAlign=middle;resizable=0;points=[];autosize=1;strokeColor=none;fillColor=none;" vertex="1" parent="1">
          <mxGeometry x="200" y="900" width="40" height="20" as="geometry" />
        </mxCell>
        <mxCell id="7iWaUASo7kZENV6Arci1-33" value="Sim" style="text;html=1;align=center;verticalAlign=middle;resizable=0;points=[];autosize=1;strokeColor=none;fillColor=none;" vertex="1" parent="1">
          <mxGeometry x="110" y="960" width="40" height="20" as="geometry" />
        </mxCell>
        <mxCell id="7iWaUASo7kZENV6Arci1-34" value="" style="endArrow=classic;html=1;rounded=0;entryX=0.5;entryY=0;entryDx=0;entryDy=0;startArrow=none;" edge="1" parent="1" source="7iWaUASo7kZENV6Arci1-39" target="7iWaUASo7kZENV6Arci1-21">
          <mxGeometry width="50" height="50" relative="1" as="geometry">
            <mxPoint x="130" y="1210" as="sourcePoint" />
            <mxPoint x="180" y="1160" as="targetPoint" />
          </mxGeometry>
        </mxCell>
        <mxCell id="7iWaUASo7kZENV6Arci1-35" value="" style="endArrow=classic;html=1;rounded=0;exitX=0.5;exitY=1;exitDx=0;exitDy=0;entryX=0.5;entryY=0;entryDx=0;entryDy=0;" edge="1" parent="1" source="7iWaUASo7kZENV6Arci1-19" target="7iWaUASo7kZENV6Arci1-20">
          <mxGeometry width="50" height="50" relative="1" as="geometry">
            <mxPoint x="390" y="1190" as="sourcePoint" />
            <mxPoint x="440" y="1140" as="targetPoint" />
          </mxGeometry>
        </mxCell>
        <mxCell id="7iWaUASo7kZENV6Arci1-36" value="" style="endArrow=classic;html=1;rounded=0;exitX=1;exitY=0.5;exitDx=0;exitDy=0;entryX=0;entryY=0.5;entryDx=0;entryDy=0;startArrow=none;" edge="1" parent="1" source="7iWaUASo7kZENV6Arci1-37" target="7iWaUASo7kZENV6Arci1-18">
          <mxGeometry width="50" height="50" relative="1" as="geometry">
            <mxPoint x="390" y="1190" as="sourcePoint" />
            <mxPoint x="440" y="1140" as="targetPoint" />
          </mxGeometry>
        </mxCell>
        <mxCell id="7iWaUASo7kZENV6Arci1-37" value="Não" style="text;html=1;align=center;verticalAlign=middle;resizable=0;points=[];autosize=1;strokeColor=none;fillColor=none;" vertex="1" parent="1">
          <mxGeometry x="200" y="1160" width="40" height="20" as="geometry" />
        </mxCell>
        <mxCell id="7iWaUASo7kZENV6Arci1-38" value="" style="endArrow=none;html=1;rounded=0;exitX=1;exitY=0.5;exitDx=0;exitDy=0;entryX=0;entryY=0.5;entryDx=0;entryDy=0;" edge="1" parent="1" source="7iWaUASo7kZENV6Arci1-20" target="7iWaUASo7kZENV6Arci1-37">
          <mxGeometry width="50" height="50" relative="1" as="geometry">
            <mxPoint x="190" y="1170" as="sourcePoint" />
            <mxPoint x="260" y="1170" as="targetPoint" />
          </mxGeometry>
        </mxCell>
        <mxCell id="7iWaUASo7kZENV6Arci1-39" value="Sim" style="text;html=1;align=center;verticalAlign=middle;resizable=0;points=[];autosize=1;strokeColor=none;fillColor=none;" vertex="1" parent="1">
          <mxGeometry x="110" y="1220" width="40" height="20" as="geometry" />
        </mxCell>
        <mxCell id="7iWaUASo7kZENV6Arci1-40" value="" style="endArrow=none;html=1;rounded=0;entryX=0.5;entryY=0;entryDx=0;entryDy=0;" edge="1" parent="1" target="7iWaUASo7kZENV6Arci1-39">
          <mxGeometry width="50" height="50" relative="1" as="geometry">
            <mxPoint x="130" y="1210" as="sourcePoint" />
            <mxPoint x="130" y="1270" as="targetPoint" />
          </mxGeometry>
        </mxCell>
        <mxCell id="7iWaUASo7kZENV6Arci1-41" value="" style="endArrow=classic;html=1;rounded=0;exitX=0.5;exitY=0;exitDx=0;exitDy=0;entryX=1;entryY=0.5;entryDx=0;entryDy=0;" edge="1" parent="1" source="7iWaUASo7kZENV6Arci1-18" target="7iWaUASo7kZENV6Arci1-19">
          <mxGeometry width="50" height="50" relative="1" as="geometry">
            <mxPoint x="390" y="1190" as="sourcePoint" />
            <mxPoint x="440" y="1140" as="targetPoint" />
            <Array as="points">
              <mxPoint x="320" y="1030" />
            </Array>
          </mxGeometry>
        </mxCell>
        <mxCell id="7iWaUASo7kZENV6Arci1-42" value="" style="endArrow=classic;html=1;rounded=0;exitX=1;exitY=0.5;exitDx=0;exitDy=0;entryX=0.5;entryY=1;entryDx=0;entryDy=0;" edge="1" parent="1" source="7iWaUASo7kZENV6Arci1-21" target="7iWaUASo7kZENV6Arci1-28">
          <mxGeometry width="50" height="50" relative="1" as="geometry">
            <mxPoint x="390" y="1190" as="sourcePoint" />
            <mxPoint x="440" y="1140" as="targetPoint" />
            <Array as="points">
              <mxPoint x="630" y="1300" />
            </Array>
          </mxGeometry>
        </mxCell>
      </root>
    </mxGraphModel>
  </diagram>
</mxfile>
